<svg width="195" height="150" viewBox="0 0 195 150" fill="none" xmlns="http://www.w3.org/2000/svg">
<path d="M6.10352e-05 48.5437H194.175V131.423C194.175 141.232 186.223 149.183 176.415 149.183H17.7599C7.95141 149.183 6.10352e-05 141.232 6.10352e-05 131.423V48.5437Z" fill="#BC2320"/>
<path fill-rule="evenodd" clip-rule="evenodd" d="M194.175 47.3597V22.251C194.175 22.251 193.583 15.2206 189.439 15.2206L184.733 15.2206H175.291H146.965H126.029C126.029 15.2206 84.0634 15.2206 78.1434 15.2206C72.2235 15.2206 77.1822 3.16833 62.7516 1.15971C48.3209 -0.848906 9.01646 0.155287 4.92621 1.15971C0.835953 2.16414 0 5.1771 0 5.1771V47.3597H194.175Z" fill="#7E1614"/>
<path fill-rule="evenodd" clip-rule="evenodd" d="M6.10352e-05 75.7754V46.1755C6.10352e-05 46.1755 0.592057 37.8876 4.73603 37.8876L9.44196 37.8876H18.8839H47.2095H68.1459C68.1459 37.8876 63.3436 37.8876 69.2636 37.8876C75.1835 37.8876 71.778 23.6796 86.2087 21.3117C100.639 18.9438 185.158 20.1276 189.248 21.3117C193.339 22.4958 194.175 26.0477 194.175 26.0477V75.7754H6.10352e-05Z" fill="#BC2320"/>
<path d="M49.9469 71.512V77.848H43.1789V97H35.1869V77.848H28.4909V71.512H49.9469ZM60.1065 77.884V81.016H68.0265V87.028H60.1065V90.628H69.1065V97H52.1145V71.512H69.1065V77.884H60.1065ZM102.754 71.512V97H94.7984V84.292L90.8744 97H84.0344L80.1104 84.292V97H72.1184V71.512H81.9104L87.5264 86.812L92.9984 71.512H102.754ZM122.705 93.148H114.209L112.949 97H104.561L113.885 71.512H123.101L132.389 97H123.965L122.705 93.148ZM120.761 87.136L118.457 80.044L116.153 87.136H120.761ZM140.394 93.04V86.38L151.122 71.08H159.726V86.128H162.318V93.04H159.726V97H151.662V93.04H140.394ZM152.31 80.188L148.422 86.128H152.31V80.188Z" fill="#EAE4D8"/>
</svg>
