<svg width="195" height="150" viewBox="0 0 195 150" fill="none" xmlns="http://www.w3.org/2000/svg">
<path d="M0 48.5674H194.27V131.487C194.27 141.301 186.315 149.256 176.501 149.256H17.7686C7.95528 149.256 0 141.301 0 131.487V48.5674Z" fill="#E98496"/>
<path fill-rule="evenodd" clip-rule="evenodd" d="M194.27 47.3829V22.2619C194.27 22.2619 193.678 15.228 189.532 15.228L184.823 15.228H175.377H147.037H126.091C126.091 15.228 84.1047 15.228 78.1819 15.228C72.259 15.228 77.2202 3.16988 62.7824 1.16028C48.3447 -0.849323 9.02095 0.155363 4.92868 1.16028C0.836411 2.1652 6.10352e-05 5.17964 6.10352e-05 5.17964V47.3829H194.27Z" fill="#E46C81"/>
<path fill-rule="evenodd" clip-rule="evenodd" d="M0 75.8125V46.1982C0 46.1982 0.592286 37.9062 4.73829 37.9062L9.44653 37.9062H18.8931H47.2327H68.1793C68.1793 37.9062 63.3747 37.9062 69.2975 37.9062C75.2204 37.9062 71.8132 23.6912 86.2509 21.3222C100.689 18.9531 185.249 20.1375 189.341 21.3222C193.434 22.5068 194.27 26.0605 194.27 26.0605V75.8125H0Z" fill="#E98496"/>
<path d="M50.15 71.2779V77.6139H43.382V96.7659H35.39V77.6139H28.694V71.2779H50.15ZM60.3096 77.6499V80.7819H68.2296V86.7939H60.3096V90.3939H69.3096V96.7659H52.3176V71.2779H69.3096V77.6499H60.3096ZM102.957 71.2779V96.7659H95.0015V84.0579L91.0775 96.7659H84.2375L80.3135 84.0579V96.7659H72.3215V71.2779H82.1135L87.7295 86.5779L93.2015 71.2779H102.957ZM122.908 92.9139H114.412L113.152 96.7659H104.764L114.088 71.2779H123.304L132.592 96.7659H124.168L122.908 92.9139ZM120.964 86.9019L118.66 79.8099L116.356 86.9019H120.964ZM159.749 77.4699H149.309V80.4939C149.765 80.0859 150.353 79.7619 151.073 79.5219C151.817 79.2819 152.645 79.1619 153.557 79.1619C155.189 79.1619 156.569 79.5459 157.697 80.3139C158.825 81.0819 159.665 82.1139 160.217 83.4099C160.769 84.6819 161.045 86.0979 161.045 87.6579C161.045 90.5379 160.229 92.7819 158.597 94.3899C156.989 95.9739 154.769 96.7659 151.937 96.7659C149.873 96.7659 148.085 96.4059 146.573 95.6859C145.085 94.9659 143.945 93.9699 143.153 92.6979C142.385 91.4259 142.025 89.9739 142.073 88.3419H149.849C149.849 88.7259 149.981 89.0859 150.245 89.4219C150.509 89.7579 150.941 89.9259 151.541 89.9259C152.141 89.9259 152.585 89.7099 152.873 89.2779C153.161 88.8459 153.305 88.2579 153.305 87.5139C153.305 86.8179 153.137 86.2899 152.801 85.9299C152.489 85.5699 152.033 85.3899 151.433 85.3899C150.929 85.3899 150.545 85.5099 150.281 85.7499C150.017 85.9899 149.885 86.2659 149.885 86.5779H142.109V70.4499H159.749V77.4699Z" fill="#EAE4D8"/>
</svg>
