<svg width="238" height="150" viewBox="0 0 238 150" fill="none" xmlns="http://www.w3.org/2000/svg">
<path d="M23 48.5674H217.27V131.487C217.27 141.301 209.315 149.256 199.501 149.256H40.7686C30.9553 149.256 23 141.301 23 131.487V48.5674Z" fill="#E98496"/>
<path fill-rule="evenodd" clip-rule="evenodd" d="M217.27 47.3829V22.2619C217.27 22.2619 216.678 15.228 212.532 15.228L207.823 15.228H198.377H170.037H149.091C149.091 15.228 107.105 15.228 101.182 15.228C95.259 15.228 100.22 3.16988 85.7824 1.16028C71.3447 -0.849323 32.021 0.155363 27.9287 1.16028C23.8364 2.1652 23.0001 5.17964 23.0001 5.17964V47.3829H217.27Z" fill="#E46C81"/>
<path fill-rule="evenodd" clip-rule="evenodd" d="M23 75.8125V46.1982C23 46.1982 23.5923 37.9062 27.7383 37.9062L32.4465 37.9062H41.8931H70.2327H91.1793C91.1793 37.9062 86.3747 37.9062 92.2975 37.9062C98.2204 37.9062 94.8132 23.6912 109.251 21.3222C123.689 18.9531 208.249 20.1375 212.341 21.3222C216.434 22.5068 217.27 26.0605 217.27 26.0605V75.8125H23Z" fill="#E98496"/>
<path d="M78.4312 67.512V73.848H71.6632V93H63.6712V73.848H56.9752V67.512H78.4312ZM88.5908 73.884V77.016H96.5108V83.028H88.5908V86.628H97.5908V93H80.5988V67.512H97.5908V73.884H88.5908ZM131.239 67.512V93H123.283V80.292L119.359 93H112.519L108.595 80.292V93H100.603V67.512H110.395L116.011 82.812L121.483 67.512H131.239ZM151.189 89.148H142.693L141.433 93H133.045L142.369 67.512H151.585L160.873 93H152.449L151.189 89.148ZM149.245 83.136L146.941 76.044L144.637 83.136H149.245ZM167.366 74.172V66.684H179.57V93H171.182V74.172H167.366Z" fill="#EAE4D8"/>
</svg>
