<svg width="32" height="32" viewBox="0 0 32 32" fill="none" xmlns="http://www.w3.org/2000/svg">
<rect width="32" height="32" fill="white"/>
<path d="M3.3769 30.0076C3.45079 29.7255 3.70128 28.9116 4.54876 26.5762C5.54633 23.8272 7.60791 18.9101 9.58928 14.4705C7.91765 13.8166 6.38614 13.2582 5.30683 12.8676C2.49715 11.851 1.73849 11.5858 1.25077 11.1056C0.9916 10.8504 2.44667 10.7311 7.01065 9.62597C8.5113 9.2626 10.4726 8.7105 12.5756 8.09407C13.7699 5.68876 14.77 3.85443 15.4274 2.74956C16.4716 0.994599 16.5935 1.189 16.6636 1.60103C16.822 2.53079 16.8608 3.55651 18.0091 6.47131C19.6333 5.98257 21.1825 5.51778 22.5122 5.13327C27.0343 3.82558 28.7752 3.38645 29.6122 3.26768C30.4492 3.1489 30.3294 3.36379 28.1798 5.11746C26.2125 6.72252 22.5478 9.61117 20.1938 11.4509C21.5179 14.3141 23.0611 17.5289 24.0469 19.6763C26.165 24.2905 26.3504 25.0325 26.3923 25.3086C26.5019 26.0322 25.3935 23.9421 22.0909 20.9073C20.5721 19.5117 17.8978 18.14 14.6337 16.6092C14.5294 16.5602 14.4244 16.5114 14.3188 16.4627C14.146 16.6337 13.9677 16.8118 13.7824 16.9986C11.1556 19.6468 9.34046 21.9932 7.93704 23.626C4.74853 27.8784 4.23961 28.5956 3.80015 29.3563C3.70644 29.5154 3.61032 29.6673 3.3769 30.0076Z" fill="#BC2320"/>
<path d="M3.3461 30.1546C3.34571 30.1382 3.35142 29.8758 4.54876 26.5762C5.6658 23.4979 8.11696 17.7013 10.2957 12.9006C12.4745 8.09989 14.3832 4.50452 15.4274 2.74956C16.4716 0.994599 16.5935 1.189 16.6636 1.60103C16.8379 2.62412 16.8674 3.76342 18.3897 7.40807C19.7268 10.6095 22.539 16.3916 24.0469 19.6763C26.165 24.2905 26.3504 25.0325 26.3923 25.3086C26.5019 26.0322 25.3935 23.9421 22.0909 20.9073C20.5721 19.5117 17.8978 18.14 14.6337 16.6092C11.3697 15.0783 7.44822 13.6424 5.30683 12.8676C2.49715 11.851 1.73849 11.5858 1.25077 11.1056C0.9916 10.8504 2.44667 10.7311 7.01065 9.62597C10.9296 8.67702 17.9901 6.44095 22.5122 5.13327C27.0343 3.82558 28.7752 3.38645 29.6122 3.26768C30.4492 3.1489 30.3294 3.36379 28.1798 5.11746C26.0303 6.87114 21.8546 10.1571 19.576 11.9331C17.0567 13.8967 15.8552 14.9089 13.7824 16.9986C11.1556 19.6468 9.34046 21.9932 7.93704 23.626C4.74853 27.8784 4.23961 28.5956 3.80015 29.3563C3.69038 29.5427 3.57732 29.7191 3.24413 30.2001" stroke="#BC2320" stroke-width="0.980494" stroke-linecap="round"/>
</svg>
