<?xml version="1.0" encoding="UTF-8"?>
<svg id="Lag_1" xmlns="http://www.w3.org/2000/svg" version="1.1" viewBox="0 0 144.82 89.06">
  <!-- Generator: Adobe Illustrator 30.0.0, SVG Export Plug-In . SVG Version: 2.1.1 Build 123)  -->
  <defs>
    <style>
      .st0 {
        fill: #e98496;
      }
    </style>
  </defs>
  <path class="st0" d="M116.34,2.44l13.64,2.45c6.11.63,10.6.12,13.48-1.56.42-.3.75-.44,1.01-.41.32.03.42.65.29,1.83-.12,1.19-.87,3.09-2.23,5.69-2.02,4-4.53,5.84-7.52,5.53l-5.24-.67c-.51-.05-.87.3-1.07,1.05-1.74,12.44-3.37,25.92-4.88,40.44-1.5,14.44-2.1,22.14-3.37,23.84l-2.04,3.33c-1.72,2.11-4.87,2.74-8.05,3.69-6.36,1.96-13.79.9-20.44,1.02-22.9.42-77.17,1.08-88.84-1.54-2.94-.66.77-2.36,3.77-2.6l58.89-4.78c5.11,0,45.3,1.94,47.49-14.23,2.26-16.16,3.82-28.36,4.68-36.6l1.25-13.9c.05-.51-.11-.83-.48-.95-1.3-.48-2.81-.81-4.53-.99-3.44-.36-6.08.31-7.93,2.01-.49.38-.93.55-1.31.51-.44-.05-.63-.41-.56-1.09.11-1.02.67-2.38,1.68-4.07.95-1.7,1.94-3.15,2.96-4.33,2.48-2.83,5.6-4.05,9.36-3.66Z"/>
  <path class="st0" d="M80.72,12.49c-5.51,5.11-9.63,10.34-12.37,15.7-.02.04,0,.09.05.09,8.86.8,13.93,1.28,15.2,1.46,1.34.12,2.08.13,2.21.03.27-.2.31-.58.29-.92-.45-6.76-.87-11.38-1.27-13.86-.41-2.6-.93-3.93-1.57-3.98-.64-.06-1.49.43-2.54,1.48ZM67.57,51.42c.68.2,1.41.17,2.12.12.71-.05,1.69-.2,1.9.48.04.13.05.29.04.46-.18,1.98-.77,3.6-1.79,4.88-1.01,1.28-2.22,2.13-3.61,2.58-2.25.76-4.15,1.08-5.68.94-2.93-.26-5.04-1.42-6.34-3.48-1.29-2.11-1.76-5.11-1.4-9.01.25-2.79,1.16-6.1,2.72-9.93,1.01-2.48-.58-5.33-3.25-5.57-.7-.06-1.02-.4-.97-1.03s.69-1.56,1.89-2.82c1.21-1.31,2.42-1.92,3.63-1.81,2.64.24,5.17-1.04,6.66-3.23,4.73-6.96,9.96-12.98,15.69-18.07,1.75-1.55,3.83-2.96,6.26-4.22,2.49-1.26,4.37-1.83,5.65-1.71,1.28.11,2.19.71,2.73,1.78,1.44,2.52,2.61,11.37,3.49,26.53.18,6.51.89,13.29,2.12,20.34,1.3,7.01,2.69,11.15,4.18,12.42.36.26.53.56.5.9-.08.85-1.52,1.51-4.32,2-2.74.49-4.85.67-6.31.54-1.4-.13-2.47-.39-3.21-.8-.74-.35-1.19-.71-1.35-1.06-.95-2.31-1.62-7.66-2.02-16.07l-.21-4.03c-.01-2.38-.07-4.25-.18-5.61-.02-.3-.18-.58-.42-.77-.16-.13-.36-.2-.57-.22l-12.02-1.14c-4.5-.43-9.06,2.21-9.47,6.71-.19,2.15-.27,3.73-.24,4.76.11.98.55,2.07,1.34,3.28.6.92,1.41,1.52,2.43,1.83Z"/>
  <path class="st0" d="M38.05,15c1.83-1.97,3.64-3.79,5.44-5.44,1.87-1.71,3.36-2.75,4.48-3.11,1.12-.36,3.34-.41,6.66-.15,3.32.26,4.94.81,4.88,1.64-.02.32-.4.64-1.14.97-.73.33-1.74.86-3.01,1.59-1.28.73-4.01,2.8-8.19,6.19-4.12,3.4-8.32,7.43-12.61,12.1-.14.12-.22.3-.24.56-.01.19.13.33.45.42.38.09.88.23,1.51.41.63.18,1.74.78,3.32,1.8,1.66.97,3.1,2.17,4.34,3.62,1.24,1.38,2.36,3.49,3.35,6.33,1.06,2.78,1.6,5.39,1.6,7.83,0,2.38.03,4.53.07,6.46.04,1.93.3,4.71.78,8.34.55,3.64,1.33,5.85,2.36,6.64.3.28.43.61.4.99-.08,1.02-1.56,1.87-4.44,2.54-2.87.61-5.43.82-7.66.65-2.17-.17-3.34-1.16-3.52-2.98-.17-1.94-.03-6.52.41-13.74l.3-3.83c.53-6.7-.04-11.62-1.72-14.77-1.45-2.75-2.83-4.33-4.15-4.76-.44-.18-.79-.32-1.05-.41-.35-.14-.72-.13-1.08,0-.36.13-.69.34-.96.62-1.48,1.52-2.7,3.01-3.63,4.46-1.02,1.59-1.6,2.76-1.72,3.52-.19.82-.32,1.65-.39,2.49-.63,8.46-.83,15.76-.58,21.9.07.77.1,1.23.08,1.35-.11,1.4-1.71,2.5-4.79,3.28-3.02.79-5.48,1.11-7.4.96-1.85-.15-2.75-.51-2.71-1.08.03-.38.16-.85.4-1.41.75-1.35,1.56-5.94,2.44-13.77.95-7.89,1.67-15.05,2.18-21.49.52-6.51.8-11.78.87-15.82.1-6.09-.25-9.78-1.05-11.06-.63-.95-.94-1.55-.92-1.81.07-.89,1.77-1.63,5.08-2.2,3.38-.57,6.06-.77,8.04-.61,2.04.16,3.03.69,2.96,1.58l-.19,1.24c-1.38,6.82-2.37,14.16-3,22.01-.05.64.05.97.31.99.32.03.69-.23,1.12-.78.43-.54,1.03-1.3,1.82-2.26.85-.96,2.33-2.7,4.46-5.23,2.19-2.52,4.2-4.77,6.02-6.75Z"/>
</svg>