<svg width="263" height="202" viewBox="0 0 263 202" fill="none" xmlns="http://www.w3.org/2000/svg">
<path d="M0 65.7302H262.921V177.952C262.921 191.234 252.154 202 238.873 202H24.0476C10.7665 202 0 191.234 0 177.952V65.7302Z" fill="#E98496"/>
<path fill-rule="evenodd" clip-rule="evenodd" d="M262.921 64.127V30.1288C262.921 30.1288 262.119 20.6093 256.508 20.6093L250.136 20.6093H237.351H198.997H170.648C170.648 20.6093 113.825 20.6093 105.81 20.6093C97.7937 20.6093 104.508 4.29005 84.9683 1.5703C65.4285 -1.14945 12.2087 0.210265 6.67032 1.5703C1.13193 2.93033 3.05176e-05 7.01001 3.05176e-05 7.01001V64.127H262.921Z" fill="#E46C81"/>
<path fill-rule="evenodd" clip-rule="evenodd" d="M0 102.603V62.5238C0 62.5238 0.801587 51.3016 6.4127 51.3016L12.7847 51.3016H25.5694H63.9236H92.2724C92.2724 51.3016 85.7698 51.3016 93.7857 51.3016C101.802 51.3016 97.1904 32.0634 116.73 28.8571C136.27 25.6509 250.712 27.2538 256.25 28.8571C261.789 30.4604 262.921 35.2698 262.921 35.2698V102.603H0Z" fill="#E98496"/>
<rect x="55.0298" y="85.6021" width="152.861" height="9.17165" fill="#E46C81"/>
<rect x="55.0298" y="113.117" width="152.861" height="9.17165" fill="#E46C81"/>
<rect x="55.0298" y="140.632" width="152.861" height="9.17165" fill="#E46C81"/>
</svg>
