<?xml version="1.0" encoding="UTF-8"?>
<svg id="Lag_1" xmlns="http://www.w3.org/2000/svg" version="1.1" viewBox="0 0 64.43 86.36">
  <!-- Generator: Adobe Illustrator 30.0.0, SVG Export Plug-In . SVG Version: 2.1.1 Build 123)  -->
  <defs>
    <style>
      .st0 {
        fill: #EEEAE2;
      }
    </style>
  </defs>
  <circle class="st0" cx="31.75" cy="44.48" r="16"/>
  <ellipse class="st0" cx="11.23" cy="30.71" rx="2.07" ry="7.03" transform="translate(-19.6 19.83) rotate(-50.48)"/>
  <ellipse class="st0" cx="37.26" cy="19.96" rx="7.03" ry="2.07" transform="translate(9.73 52.03) rotate(-77.53)"/>
  <path class="st0" d="M7.32,44.77c3.88,0,7.03.93,7.03,2.07s-3.15,2.07-7.03,2.07-7.03-.93-7.03-2.07,3.15-2.07,7.03-2.07Z"/>
  <ellipse class="st0" cx="52.6" cy="57.24" rx="2.07" ry="7.03" transform="translate(-25.03 61.39) rotate(-50.48)"/>
  <ellipse class="st0" cx="57.25" cy="41.97" rx="7.03" ry="2.07" transform="translate(-7.57 13.03) rotate(-12.19)"/>
  <ellipse class="st0" cx="27.67" cy="70.3" rx="7.87" ry="2.32" transform="translate(-45.27 89.99) rotate(-83.63)"/>
  <ellipse class="st0" cx="49.77" cy="27.01" rx="7.03" ry="2.07" transform="translate(-3.77 45.45) rotate(-47.49)"/>
  <ellipse class="st0" cx="14.35" cy="62.15" rx="7.03" ry="2.07" transform="translate(-37.55 25.07) rotate(-41.46)"/>
  <ellipse class="st0" cx="41.88" cy="67.77" rx="2.07" ry="7.03" transform="translate(-24.22 23.3) rotate(-24.35)"/>
  <ellipse class="st0" cx="22.01" cy="21.64" rx="2.07" ry="7.03" transform="translate(-6.96 11) rotate(-24.35)"/>
</svg>