<?xml version="1.0" encoding="UTF-8"?>
<svg id="Lag_1" xmlns="http://www.w3.org/2000/svg" version="1.1" viewBox="0 0 453.66 307.18">
  <!-- Generator: Adobe Illustrator 30.0.0, SVG Export Plug-In . SVG Version: 2.1.1 Build 123)  -->
  <defs>
    <style>
      .st0, .st1, .st2, .st3, .st4, .st5, .st6, .st7 {
        stroke: #841212;
        stroke-miterlimit: 10;
      }

      .st0, .st1, .st5 {
        fill: #be1622;
      }

      .st1, .st2, .st6, .st7 {
        stroke-width: 3px;
      }

      .st2 {
        fill: #841212;
      }

      .st3, .st4, .st6 {
        fill: #bc1621;
      }

      .st4, .st5 {
        stroke-width: 2px;
      }

      .st7 {
        fill: none;
      }
    </style>
  </defs>
  <path class="st6" d="M387.98,247.57c-.49,5.72-5.76,10.4-11.69,12.47-5.96,2.08-12.52,2.06-18.91,2.01-61.16-.47-122.32-.94-183.47-1.4-20.4-.16-41.77-.82-57.11-13-2.11,8.22-4.23,16.54-4.02,24.98.22,8.43,3.03,17.13,9.57,23.14,10.52,9.67,27.32,10.09,42.32,9.88,61.95-.87,123.9-1.74,185.86-2.62,10.7-.15,21.83-.39,31.39-4.74,5.29-16.51,8.74-33.68,6.08-50.69,0-.01-.02-.02-.03-.04Z"/>
  <path class="st5" d="M53.25,126.4c-3.77,1.51-8.1,3.7-8.59,7.66-.38,3.06,1.8,5.83,4.02,8.02,2.66,2.62,5.73,5.07,9.4,5.94,4.23,1,8.77-.24,12.44-2.53s6.59-5.55,9.28-8.89c-2.68-1.47-4.93-3.65-6.54-6.2-1.41-2.22-1.9-5.3-3.65-7.27-3.76-4.23-12.17,1.6-16.36,3.28Z"/>
  <path class="st1" d="M42.16,142.84c-13.81,22.07-24.72,45.94-32.39,70.81-2.41,7.83-6.07,17.88-6.22,26.07-3.82,5.7-1.76,15.58,1.79,21.45s9.64,9.85,16.09,12.17,13.33,3.15,20.14,3.96c15.3,1.82,30.6,3.64,45.9,5.46,2.15.26,4.37.51,6.47-.05s4.07-2.14,4.43-4.27c.45-2.64-1.73-5.15-4.25-6.05s-5.29-.61-7.96-.36c-15.79,1.43-31.78.61-47.34-2.45-7.12-1.4-14.73-3.65-18.95-9.55-4.93-6.9-3.57-16.3-1.99-24.63,2.99-15.8,6.01-31.67,11.53-46.77,5.52-15.1,13.71-29.52,25.68-40.25-2.86-3.06-5.71-6.11-8.57-9.17-1.43,1.31-3.32,1.99-4.35,3.63Z"/>
  <path class="st3" d="M327.31,63.59c.36-2.49.35-5.7-1.96-6.71-1.2-.52-2.58-.18-3.85.16-3.21.88-6.43,1.77-9.64,2.65-1.7.47-3.44.96-4.83,2.03-3.54,2.72-3.58,7.93-3.3,12.39.26,4.15.53,8.3.79,12.44.13,2.03.35,4.25,1.81,5.66,1.21,1.15,2.98,1.46,4.65,1.57,3.93.25,8.12-.41,11.15-2.93,3.83-3.18,2.79-6.49,2.78-10.7-.01-5.38,1.61-11.23,2.38-16.56Z"/>
  <path class="st3" d="M201.91,69.44c.36-2.49.35-5.7-1.96-6.71-1.2-.52-2.58-.18-3.85.16-3.21.88-6.43,1.77-9.64,2.65-1.7.47-3.44.96-4.83,2.03-3.54,2.72-3.58,7.93-3.3,12.39.26,4.15.53,8.3.79,12.44.13,2.03.35,4.25,1.81,5.66,1.21,1.15,2.98,1.46,4.65,1.57,3.93.25,8.12-.41,11.15-2.93,3.83-3.18,2.79-6.49,2.78-10.7-.01-5.38,1.61-11.23,2.38-16.56Z"/>
  <path class="st6" d="M181.65,98.98c-6.16-1.34-12.58,2.07-16.59,6.93s-6.11,10.98-8.13,16.96c-12.66,37.5-25.33,75-37.99,112.5-1.56,4.61-3.12,9.62-1.62,14.25,1.45,4.45,5.56,7.63,9.99,9.15s9.19,1.65,13.87,1.76c36.57.87,73.14,1.73,109.7,2.6,42.28,1,84.55,2,126.83,3,2.95.07,6.18.05,8.47-1.8,3.66-2.96,2.93-8.63,1.86-13.22-6.58-28.19-13.16-56.37-19.75-84.56-.94-4.04-5.67-4.67-9.34-6.6-7.72-4.07-13.28-11.97-14.52-20.6-.81-5.64.13-11.36.28-17.06s-.65-11.78-4.32-16.14c-5.45-6.47-15.07-6.97-23.54-6.96-45.29.05-90.97,9.4-135.22-.19Z"/>
  <path class="st7" d="M425.82,199.18h.4"/>
  <path class="st4" d="M84.15,63.18c12.85-19.82,32.85-34.29,54.6-43.51S184.01,6.16,207.49,3.59C253.14-1.41,300.27,0,343.6,15.21c43.33,15.21,82.62,45.4,102.16,86.95,5.76,12.26,9.72,26.71,4.37,39.15-4.21,9.79-13.64,16.58-23.71,20.07s-20.88,4.13-31.52,4.74c-9.41.54-19,1.06-28.15-1.23-9.15-2.29-17.95-7.88-21.77-16.5-4.97-11.24-.52-24.23-1.27-36.5-1.3-21.07-18.46-38.49-37.99-46.52-19.53-8.03-41.21-8.5-62.32-8.86-11.3-.19-22.73-.37-33.74,2.18s-21.72,8.16-28.18,17.43c-5.23,7.51-7.26,16.71-10.96,25.08-8.03,18.16-24.53,32.35-43.69,37.57-14.73,4.02-47.53,4.74-54.63-12.58-7.85-19.15,1.46-46.85,11.94-63.02Z"/>
  <path class="st0" d="M185.27,86.17c2.29-1.05,4.88-1.13,7.4-1.19,41-1.02,81.99-2.04,122.99-3.06,2.1-.05,4.3-.08,6.15.91,3.78,2.02,4.35,7.19,3.89,11.45.29,4.25.33,8.79-.55,12.71-9.97,2.08-20.08,1.26-30.17,1.74-11.48.55-22.96.94-34.45,1.19-22.73.48-45.47.37-68.19-.33-5.44-.17-11.2-1.47-12.12-7.54-.87-5.7-1.04-13.08,5.07-15.88Z"/>
  <path class="st5" d="M100.27,269.18c.95-.5,2.08-.53,3.16-.54,3.56-.03,7.12-.07,10.68-.1.8,4.17,1.61,8.35,2.41,12.52.31,1.6.6,3.32-.07,4.81-2.26,5.01-15.85,4.9-17.76-.16-.75-2,.57-5.64.31-7.92-.31-2.79-2.17-6.79,1.27-8.61Z"/>
  <ellipse class="st6" cx="256.17" cy="182.41" rx="69.7" ry="65.32"/>
  <circle class="st2" cx="216.67" cy="146.66" r="6.69"/>
  <circle class="st2" cx="256.17" cy="132.52" r="6.69"/>
  <circle class="st2" cx="204.15" cy="178.89" r="6.69"/>
  <circle class="st2" cx="210.84" cy="211.13" r="6.69"/>
  <circle class="st2" cx="290.52" cy="146.66" r="6.69"/>
  <circle class="st2" cx="306.38" cy="175.72" r="6.69"/>
  <circle class="st2" cx="303.63" cy="207.08" r="6.69"/>
  <circle class="st2" cx="277.14" cy="227.45" r="6.69"/>
  <circle class="st2" cx="235.23" cy="229.96" r="6.69"/>
</svg>