<svg width="531" height="341" viewBox="0 0 531 341" fill="none" xmlns="http://www.w3.org/2000/svg">
<path d="M29.3069 273.451V260.139H51.0029V306.923H36.0909V273.451H29.3069ZM64.4694 307.435C61.9947 307.435 60.0107 306.774 58.5174 305.451C57.024 304.129 56.2774 302.465 56.2774 300.459C56.2774 298.411 57.024 296.726 58.5174 295.403C60.0107 294.038 61.9947 293.355 64.4694 293.355C66.9014 293.355 68.864 294.038 70.3574 295.403C71.8507 296.726 72.5974 298.411 72.5974 300.459C72.5974 302.465 71.8507 304.129 70.3574 305.451C68.864 306.774 66.9014 307.435 64.4694 307.435ZM116.928 307.371C111.509 307.371 107.029 306.113 103.488 303.595C99.9893 301.035 98.0907 297.302 97.792 292.395H112.896C113.109 294.998 114.261 296.299 116.352 296.299C117.12 296.299 117.76 296.129 118.272 295.787C118.827 295.403 119.104 294.827 119.104 294.059C119.104 292.993 118.528 292.139 117.376 291.499C116.224 290.817 114.432 290.049 112 289.195C109.099 288.171 106.688 287.169 104.768 286.187C102.891 285.206 101.269 283.777 99.904 281.899C98.5387 280.022 97.8773 277.611 97.92 274.667C97.92 271.723 98.6667 269.227 100.16 267.179C101.696 265.089 103.765 263.51 106.368 262.443C109.013 261.377 111.979 260.843 115.264 260.843C120.811 260.843 125.205 262.123 128.448 264.683C131.733 267.243 133.461 270.849 133.632 275.499H118.336C118.293 274.219 117.973 273.302 117.376 272.747C116.779 272.193 116.053 271.915 115.2 271.915C114.603 271.915 114.112 272.129 113.728 272.555C113.344 272.939 113.152 273.494 113.152 274.219C113.152 275.243 113.707 276.097 114.816 276.779C115.968 277.419 117.781 278.209 120.256 279.147C123.115 280.214 125.461 281.238 127.296 282.219C129.173 283.201 130.795 284.566 132.16 286.315C133.525 288.065 134.208 290.262 134.208 292.907C134.208 295.681 133.525 298.177 132.16 300.395C130.795 302.571 128.811 304.278 126.208 305.515C123.605 306.753 120.512 307.371 116.928 307.371ZM153.408 272.939V278.507H167.488V289.195H153.408V295.595H169.408V306.923H139.2V261.611H169.408V272.939H153.408ZM229.227 261.611V306.923H215.083V284.331L208.107 306.923H195.947L188.971 284.331V306.923H174.763V261.611H192.171L202.155 288.811L211.883 261.611H229.227ZM249.846 272.939V278.507H263.926V289.195H249.846V295.595H265.846V306.923H235.638V261.611H265.846V272.939H249.846ZM288.928 307.371C283.509 307.371 279.029 306.113 275.488 303.595C271.989 301.035 270.091 297.302 269.792 292.395H284.896C285.109 294.998 286.261 296.299 288.352 296.299C289.12 296.299 289.76 296.129 290.272 295.787C290.827 295.403 291.104 294.827 291.104 294.059C291.104 292.993 290.528 292.139 289.376 291.499C288.224 290.817 286.432 290.049 284 289.195C281.099 288.171 278.688 287.169 276.768 286.187C274.891 285.206 273.269 283.777 271.904 281.899C270.539 280.022 269.877 277.611 269.92 274.667C269.92 271.723 270.667 269.227 272.16 267.179C273.696 265.089 275.765 263.51 278.368 262.443C281.013 261.377 283.979 260.843 287.264 260.843C292.811 260.843 297.205 262.123 300.448 264.683C303.733 267.243 305.461 270.849 305.632 275.499H290.336C290.293 274.219 289.973 273.302 289.376 272.747C288.779 272.193 288.053 271.915 287.2 271.915C286.603 271.915 286.112 272.129 285.728 272.555C285.344 272.939 285.152 273.494 285.152 274.219C285.152 275.243 285.707 276.097 286.816 276.779C287.968 277.419 289.781 278.209 292.256 279.147C295.115 280.214 297.461 281.238 299.296 282.219C301.173 283.201 302.795 284.566 304.16 286.315C305.525 288.065 306.208 290.262 306.208 292.907C306.208 295.681 305.525 298.177 304.16 300.395C302.795 302.571 300.811 304.278 298.208 305.515C295.605 306.753 292.512 307.371 288.928 307.371ZM346.784 261.611V272.875H334.752V306.923H320.544V272.875H308.64V261.611H346.784ZM364.846 272.939V278.507H378.926V289.195H364.846V295.595H380.846V306.923H350.638V261.611H380.846V272.939H364.846ZM408.984 306.923L400.472 290.667H400.408V306.923H386.2V261.611H407.32C410.989 261.611 414.125 262.273 416.728 263.595C419.331 264.875 421.272 266.646 422.552 268.907C423.875 271.126 424.536 273.643 424.536 276.459C424.536 279.489 423.683 282.177 421.976 284.523C420.312 286.87 417.901 288.555 414.744 289.579L424.6 306.923H408.984ZM400.408 281.195H406.04C407.405 281.195 408.429 280.897 409.112 280.299C409.795 279.659 410.136 278.678 410.136 277.355C410.136 276.161 409.773 275.222 409.048 274.539C408.365 273.857 407.363 273.515 406.04 273.515H400.408V281.195Z" fill="#EEEAE2"/>
<path d="M347.593 86.424H333.513L341.065 67.544H350.409L347.593 86.424ZM375.429 113.304C370.01 113.304 365.53 112.045 361.989 109.528C358.49 106.968 356.591 103.235 356.293 98.328H371.397C371.61 100.931 372.762 102.232 374.853 102.232C375.621 102.232 376.261 102.061 376.773 101.72C377.327 101.336 377.605 100.76 377.605 99.992C377.605 98.9253 377.029 98.072 375.877 97.432C374.725 96.7493 372.933 95.9813 370.501 95.128C367.599 94.104 365.189 93.1013 363.269 92.12C361.391 91.1386 359.77 89.7093 358.405 87.832C357.039 85.9546 356.378 83.544 356.421 80.6C356.421 77.656 357.167 75.16 358.661 73.112C360.197 71.0213 362.266 69.4426 364.869 68.376C367.514 67.3093 370.479 66.776 373.765 66.776C379.311 66.776 383.706 68.056 386.949 70.616C390.234 73.176 391.962 76.7813 392.133 81.432H376.837C376.794 80.152 376.474 79.2346 375.877 78.68C375.279 78.1253 374.554 77.848 373.701 77.848C373.103 77.848 372.613 78.0613 372.229 78.488C371.845 78.872 371.653 79.4266 371.653 80.152C371.653 81.176 372.207 82.0293 373.317 82.712C374.469 83.352 376.282 84.1413 378.757 85.08C381.615 86.1466 383.962 87.1706 385.797 88.152C387.674 89.1333 389.295 90.4986 390.661 92.248C392.026 93.9973 392.709 96.1946 392.709 98.84C392.709 101.613 392.026 104.109 390.661 106.328C389.295 108.504 387.311 110.211 384.709 111.448C382.106 112.685 379.013 113.304 375.429 113.304Z" fill="#EEEAE2"/>
<path d="M261.048 64.7068L288.069 69.5632C300.172 70.8222 309.073 69.7877 314.771 66.4597C315.598 65.8639 316.264 65.5922 316.768 65.6446C317.398 65.7102 317.591 66.9235 317.345 69.2844C317.099 71.6454 315.624 75.4127 312.919 80.5862C308.908 88.5218 303.939 92.1814 298.014 91.565L287.639 90.2301C286.63 90.1252 285.921 90.8185 285.511 92.31C282.049 117.008 278.818 143.776 275.817 172.614C272.834 201.283 271.646 216.586 269.131 219.962L265.08 226.57C261.681 230.754 255.442 232.007 249.127 233.907C242.938 235.82 229.383 235.777 228.933 235.519C228.617 235.565 -0.00701494 241.063 31.203 228.496L156.809 218.247C166.924 218.244 246.522 222.07 250.882 189.965C255.368 157.872 258.462 133.647 260.165 117.289L262.655 89.6768C262.761 88.665 262.444 88.0354 261.705 87.788C259.128 86.8381 256.137 86.186 252.733 85.832C245.925 85.1238 240.689 86.4543 237.025 89.8234C236.055 90.5748 235.192 90.9111 234.435 90.8325C233.553 90.7407 233.182 90.0202 233.322 88.6711C233.533 86.6474 234.641 83.9501 236.649 80.5791C238.53 77.195 240.485 74.3299 242.513 71.9839C247.431 66.3588 253.61 63.933 261.048 64.7068Z" fill="#EEEAE2"/>
<path d="M190.49 84.699C179.517 94.9006 171.32 105.353 165.901 116.055L166.09 116.072C183.636 117.653 193.666 118.614 196.18 118.953C198.831 119.192 200.292 119.211 200.565 119.009C200.838 118.808 201.052 118.545 201.209 118.22C200.308 104.235 199.448 94.7188 198.631 89.6716C197.824 84.5122 196.789 81.8756 195.527 81.7618C194.265 81.6481 192.586 82.6271 190.49 84.699ZM166.491 162.397L170.718 162.099C171.98 162.213 172.555 162.887 172.444 164.12C172.09 168.044 170.908 171.273 168.898 173.804C166.888 176.336 164.507 178.043 161.755 178.925C157.291 180.445 153.545 181.068 150.515 180.795C144.709 180.272 140.526 177.973 137.967 173.899C135.418 169.713 134.492 163.752 135.19 156.015C135.898 148.166 139.212 138.235 145.132 126.221L134.15 125.232C132.761 125.107 132.123 124.427 132.234 123.194C132.345 121.961 133.595 120.095 135.984 117.597C138.383 114.988 140.781 113.791 143.18 114.007L151.7 114.775C162.261 97.8669 174.182 83.5117 187.463 71.7095C190.922 68.6301 195.055 65.8376 199.862 63.3319C204.796 60.8375 208.525 59.7041 211.049 59.9317C213.574 60.1592 215.376 61.339 216.456 63.471C219.313 68.476 221.61 86.0342 223.347 116.146C223.709 129.064 225.103 142.528 227.529 156.538C230.092 170.446 232.85 178.664 235.803 181.191C236.52 181.707 236.848 182.302 236.787 182.975C236.636 184.657 233.78 185.982 228.221 186.95C222.788 187.93 218.62 188.289 215.716 188.028C212.939 187.777 210.824 187.248 209.37 186.438C207.906 185.741 207.015 185.039 206.697 184.332C204.819 179.755 203.488 169.122 202.703 152.435L202.28 144.428C202.251 139.112 202.105 135.086 201.843 132.35L200.593 131.39L161.036 127.655C159.006 133.237 157.798 138.158 157.414 142.419C157.029 146.68 156.872 149.83 156.943 151.871C157.149 153.812 158.035 155.983 159.6 158.385C161.165 160.786 163.462 162.124 166.491 162.397Z" fill="#EEEAE2"/>
<path d="M105.968 89.6853C109.584 85.7651 113.175 82.1617 116.741 78.8749C120.443 75.4714 123.403 73.4113 125.621 72.6946C127.839 71.9779 132.233 71.8796 138.802 72.3996C145.372 72.9197 148.591 74.003 148.461 75.6498C148.41 76.2831 147.66 76.9248 146.21 77.5749C144.76 78.2249 142.77 79.2783 140.239 80.735C137.708 82.1917 132.298 86.2885 124.009 93.0255C115.846 99.7724 107.52 107.781 99.0298 117.051C98.757 117.285 98.6005 117.655 98.5603 118.162C98.5302 118.542 98.8259 118.82 99.4476 118.997C100.196 119.183 101.191 119.453 102.434 119.807C103.678 120.16 105.871 121.353 109.015 123.387C112.296 125.304 115.157 127.697 117.599 130.567C120.051 133.311 122.261 137.501 124.23 143.138C126.334 148.658 127.385 153.84 127.382 158.683C127.39 163.4 127.432 167.674 127.51 171.504C127.587 175.334 128.103 180.856 129.056 188.07C130.136 195.293 131.694 199.687 133.731 201.25C134.323 201.807 134.589 202.465 134.528 203.225C134.368 205.252 131.437 206.932 125.738 208.265C120.049 209.472 114.993 209.9 110.572 209.55C106.276 209.21 103.953 207.242 103.603 203.645C103.273 199.795 103.549 190.703 104.432 176.369L105.034 168.769C106.089 155.468 104.958 145.691 101.64 139.437C98.7674 133.984 96.0296 130.835 93.4268 129.992C91.4557 129.199 90.407 128.797 90.2807 128.787L88.1208 129.572C84.8075 132.879 82.1359 136.109 80.106 139.262C78.0761 142.416 76.9377 144.748 76.6908 146.258L76.1159 148.698C74.6993 166.559 74.2467 181.883 74.758 194.67C74.8901 196.21 74.9461 197.107 74.926 197.36C74.705 200.147 71.5452 202.318 65.4468 203.875C59.4747 205.442 54.5936 206.075 50.8036 205.775C47.14 205.485 45.3533 204.77 45.4437 203.63C45.504 202.87 45.7689 201.935 46.2383 200.825C47.7227 198.138 49.3354 189.024 51.0765 173.484C52.954 157.826 54.4001 143.601 55.4148 130.807C56.4396 117.886 57.0158 107.416 57.1434 99.3957C57.3399 87.3018 56.6492 79.9815 55.0714 77.4347C53.8224 75.5513 53.218 74.3562 53.2582 73.8495C53.3988 72.0761 56.756 70.6211 63.3296 69.4844C70.0296 68.3577 75.3377 67.9493 79.2541 68.2593C83.2967 68.5794 85.2477 69.6261 85.1071 71.3995L84.7217 73.8546C81.9943 87.4052 80.0127 101.971 78.7769 117.551C78.6765 118.818 78.8789 119.472 79.3842 119.512C80.0159 119.562 80.756 119.047 81.6044 117.966C82.4528 116.886 83.6522 115.388 85.2026 113.471C86.8794 111.565 89.8238 108.101 94.0357 103.081C98.3741 98.0707 102.351 93.6055 105.968 89.6853Z" fill="#EEEAE2"/>
</svg>
