<svg width="195" height="150" viewBox="0 0 195 150" fill="none" xmlns="http://www.w3.org/2000/svg">
<path d="M0 48.5437H194.175V131.423C194.175 141.232 186.223 149.183 176.415 149.183H17.7599C7.95135 149.183 0 141.232 0 131.423V48.5437Z" fill="#BC2320"/>
<path fill-rule="evenodd" clip-rule="evenodd" d="M194.175 47.3597V22.251C194.175 22.251 193.583 15.2206 189.439 15.2206L184.733 15.2206H175.291H146.965H126.029C126.029 15.2206 84.0633 15.2206 78.1434 15.2206C72.2234 15.2206 77.1822 3.16833 62.7515 1.15971C48.3208 -0.848906 9.0164 0.155287 4.92615 1.15971C0.835892 2.16414 -6.10352e-05 5.1771 -6.10352e-05 5.1771V47.3597H194.175Z" fill="#7E1614"/>
<path fill-rule="evenodd" clip-rule="evenodd" d="M0 75.7754V46.1755C0 46.1755 0.591996 37.8876 4.73597 37.8876L9.44189 37.8876H18.8838H47.2095H68.1459C68.1459 37.8876 63.3435 37.8876 69.2635 37.8876C75.1835 37.8876 71.7779 23.6796 86.2086 21.3117C100.639 18.9438 185.158 20.1276 189.248 21.3117C193.339 22.4958 194.175 26.0477 194.175 26.0477V75.7754H0Z" fill="#BC2320"/>
<path d="M41.3977 97.252C38.9977 97.252 36.7897 96.688 34.7737 95.56C32.7817 94.432 31.1977 92.872 30.0217 90.88C28.8457 88.888 28.2577 86.644 28.2577 84.148C28.2577 81.652 28.8457 79.408 30.0217 77.416C31.1977 75.424 32.7817 73.876 34.7737 72.772C36.7897 71.644 38.9977 71.08 41.3977 71.08C43.7977 71.08 45.9937 71.644 47.9857 72.772C49.9777 73.876 51.5497 75.424 52.7017 77.416C53.8777 79.408 54.4657 81.652 54.4657 84.148C54.4657 86.644 53.8777 88.888 52.7017 90.88C51.5497 92.872 49.9657 94.432 47.9497 95.56C45.9577 96.688 43.7737 97.252 41.3977 97.252ZM41.3977 89.8C42.9817 89.8 44.2057 89.296 45.0697 88.288C45.9337 87.256 46.3657 85.876 46.3657 84.148C46.3657 82.396 45.9337 81.016 45.0697 80.008C44.2057 78.976 42.9817 78.46 41.3977 78.46C39.7897 78.46 38.5537 78.976 37.6897 80.008C36.8257 81.016 36.3937 82.396 36.3937 84.148C36.3937 85.876 36.8257 87.256 37.6897 88.288C38.5537 89.296 39.7897 89.8 41.3977 89.8ZM87.9848 71.512V97H80.0288V84.292L76.1048 97H69.2648L65.3408 84.292V97H57.3488V71.512H67.1408L72.7568 86.812L78.2288 71.512H87.9848ZM128.344 71.512V97H120.388V84.292L116.464 97H109.624L105.7 84.292V97H97.7082V71.512H107.5L113.116 86.812L118.588 71.512H128.344ZM139.942 71.512V97H131.95V71.512H139.942ZM159.176 80.224C158.864 79.72 158.42 79.336 157.844 79.072C157.268 78.784 156.572 78.64 155.756 78.64C154.22 78.64 153.032 79.144 152.192 80.152C151.352 81.136 150.932 82.492 150.932 84.22C150.932 86.212 151.4 87.7 152.336 88.684C153.272 89.668 154.712 90.16 156.656 90.16C158.504 90.16 159.992 89.416 161.12 87.928H154.748V82.276H167.744V90.268C166.64 92.164 165.116 93.796 163.172 95.164C161.228 96.508 158.768 97.18 155.792 97.18C153.152 97.18 150.848 96.64 148.88 95.56C146.936 94.456 145.436 92.92 144.38 90.952C143.348 88.984 142.832 86.74 142.832 84.22C142.832 81.7 143.348 79.456 144.38 77.488C145.436 75.52 146.936 73.996 148.88 72.916C150.824 71.812 153.104 71.26 155.72 71.26C159.056 71.26 161.768 72.064 163.856 73.672C165.968 75.28 167.216 77.464 167.6 80.224H159.176Z" fill="#EAE4D8"/>
</svg>
