<svg width="195" height="150" viewBox="0 0 195 150" fill="none" xmlns="http://www.w3.org/2000/svg">
<path d="M0 48.5437H194.175V131.423C194.175 141.232 186.223 149.183 176.415 149.183H17.7599C7.95135 149.183 0 141.232 0 131.423V48.5437Z" fill="#BC2320"/>
<path fill-rule="evenodd" clip-rule="evenodd" d="M194.175 47.3597V22.251C194.175 22.251 193.583 15.2206 189.439 15.2206L184.733 15.2206H175.291H146.965H126.029C126.029 15.2206 84.0633 15.2206 78.1434 15.2206C72.2234 15.2206 77.1822 3.16833 62.7515 1.15971C48.3208 -0.848906 9.0164 0.155287 4.92615 1.15971C0.835892 2.16414 -6.10352e-05 5.1771 -6.10352e-05 5.1771V47.3597H194.175Z" fill="#7E1614"/>
<path fill-rule="evenodd" clip-rule="evenodd" d="M0 75.7754V46.1755C0 46.1755 0.591996 37.8876 4.73597 37.8876L9.44189 37.8876H18.8838H47.2095H68.1459C68.1459 37.8876 63.3435 37.8876 69.2635 37.8876C75.1835 37.8876 71.7779 23.6796 86.2086 21.3117C100.639 18.9438 185.158 20.1276 189.248 21.3117C193.339 22.4958 194.175 26.0477 194.175 26.0477V75.7754H0Z" fill="#BC2320"/>
<path d="M54.4254 67.512V73.848H47.6574V93H39.6654V73.848H32.9694V67.512H54.4254ZM64.585 73.884V77.016H72.505V83.028H64.585V86.628H73.585V93H56.593V67.512H73.585V73.884H64.585ZM107.233 67.512V93H99.2769V80.292L95.3529 93H88.5129L84.5889 80.292V93H76.5969V67.512H86.3889L92.0049 82.812L97.4769 67.512H107.233ZM127.183 89.148H118.687L117.427 93H109.039L118.363 67.512H127.579L136.867 93H128.443L127.183 89.148ZM125.239 83.136L122.935 76.044L120.631 83.136H125.239ZM144.008 86.628C147.224 84.228 149.768 82.056 151.64 80.112C153.512 78.144 154.448 76.308 154.448 74.604C154.448 74.028 154.316 73.584 154.052 73.272C153.812 72.96 153.488 72.804 153.08 72.804C152.6 72.804 152.216 73.056 151.928 73.56C151.664 74.04 151.568 74.784 151.64 75.792H143.9C143.972 73.56 144.452 71.724 145.34 70.284C146.252 68.844 147.428 67.788 148.868 67.116C150.308 66.444 151.892 66.108 153.62 66.108C156.692 66.108 158.936 66.852 160.352 68.34C161.792 69.804 162.512 71.688 162.512 73.992C162.512 76.416 161.732 78.696 160.172 80.832C158.636 82.944 156.704 84.732 154.376 86.196H162.62V92.64H144.008V86.628Z" fill="#EAE4D8"/>
</svg>
