<svg width="195" height="153" viewBox="0 0 195 153" fill="none" xmlns="http://www.w3.org/2000/svg">
<path d="M0 52H194.27V134.92C194.27 144.733 186.315 152.689 176.501 152.689H17.7686C7.95528 152.689 0 144.733 0 134.92V52Z" fill="#E98496"/>
<path fill-rule="evenodd" clip-rule="evenodd" d="M194.27 47.3829V22.2619C194.27 22.2619 193.678 15.228 189.532 15.228L184.823 15.228H175.377H147.037H126.091C126.091 15.228 84.1047 15.228 78.1819 15.228C72.259 15.228 77.2202 3.16988 62.7824 1.16028C48.3447 -0.849323 9.02095 0.155363 4.92868 1.16028C0.836411 2.1652 6.10352e-05 5.17964 6.10352e-05 5.17964V47.3829H194.27Z" fill="#E46C81"/>
<path fill-rule="evenodd" clip-rule="evenodd" d="M0 75.8125V46.1982C0 46.1982 0.592286 37.9062 4.73829 37.9062L9.44653 37.9062H18.8931H47.2327H68.1793C68.1793 37.9062 63.3747 37.9062 69.2975 37.9062C75.2204 37.9062 71.8132 23.6912 86.2509 21.3222C100.689 18.9531 185.249 20.1375 189.341 21.3222C193.434 22.5068 194.27 26.0605 194.27 26.0605V75.8125H0Z" fill="#E98496"/>
<path d="M56.4312 70.512V76.848H49.6632V96H41.6712V76.848H34.9752V70.512H56.4312ZM66.5908 76.884V80.016H74.5108V86.028H66.5908V89.628H75.5908V96H58.5988V70.512H75.5908V76.884H66.5908ZM109.239 70.512V96H101.283V83.292L97.3587 96H90.5187L86.5947 83.292V96H78.6027V70.512H88.3947L94.0107 85.812L99.4827 70.512H109.239ZM129.189 92.148H120.693L119.433 96H111.045L120.369 70.512H129.585L138.873 96H130.449L129.189 92.148ZM127.245 86.136L124.941 79.044L122.637 86.136H127.245ZM145.366 77.172V69.684H157.57V96H149.182V77.172H145.366Z" fill="#EAE4D8"/>
</svg>
