<svg width="195" height="150" viewBox="0 0 195 150" fill="none" xmlns="http://www.w3.org/2000/svg">
<path d="M0 48.5674H194.27V131.487C194.27 141.301 186.315 149.256 176.501 149.256H17.7686C7.95528 149.256 0 141.301 0 131.487V48.5674Z" fill="#E98496"/>
<path fill-rule="evenodd" clip-rule="evenodd" d="M194.27 47.3829V22.2619C194.27 22.2619 193.678 15.228 189.532 15.228L184.823 15.228H175.377H147.037H126.091C126.091 15.228 84.1047 15.228 78.1819 15.228C72.259 15.228 77.2202 3.16988 62.7824 1.16028C48.3447 -0.849323 9.02095 0.155363 4.92868 1.16028C0.836411 2.1652 6.10352e-05 5.17964 6.10352e-05 5.17964V47.3829H194.27Z" fill="#E46C81"/>
<path fill-rule="evenodd" clip-rule="evenodd" d="M0 75.8125V46.1982C0 46.1982 0.592286 37.9062 4.73829 37.9062L9.44653 37.9062H18.8931H47.2327H68.1793C68.1793 37.9062 63.3747 37.9062 69.2975 37.9062C75.2204 37.9062 71.8132 23.6912 86.2509 21.3222C100.689 18.9531 185.249 20.1375 189.341 21.3222C193.434 22.5068 194.27 26.0605 194.27 26.0605V75.8125H0Z" fill="#E98496"/>
<path d="M57.5465 71.512V77.848H50.7785V97H42.7865V77.848H36.0905V71.512H57.5465ZM67.7061 77.884V81.016H75.6261V87.028H67.7061V90.628H76.7061V97H59.7141V71.512H76.7061V77.884H67.7061ZM110.354 71.512V97H102.398V84.292L98.474 97H91.634L87.71 84.292V97H79.718V71.512H89.51L95.126 86.812L100.598 71.512H110.354ZM130.304 93.148H121.808L120.548 97H112.16L121.484 71.512H130.7L139.988 97H131.564L130.304 93.148ZM128.36 87.136L126.056 80.044L123.752 87.136H128.36ZM147.741 78.928C147.813 76.072 148.641 73.888 150.225 72.376C151.833 70.864 154.101 70.108 157.029 70.108C158.925 70.108 160.545 70.432 161.889 71.08C163.233 71.728 164.241 72.604 164.913 73.708C165.609 74.812 165.957 76.06 165.957 77.452C165.957 79.132 165.561 80.452 164.769 81.412C163.977 82.348 163.089 82.984 162.105 83.32V83.464C164.985 84.544 166.425 86.548 166.425 89.476C166.425 91.012 166.065 92.368 165.345 93.544C164.625 94.72 163.593 95.632 162.249 96.28C160.929 96.928 159.357 97.252 157.533 97.252C154.413 97.252 151.965 96.508 150.189 95.02C148.413 93.532 147.501 91.204 147.453 88.036H155.229C155.181 88.9 155.301 89.56 155.589 90.016C155.901 90.448 156.429 90.664 157.173 90.664C157.605 90.664 157.965 90.508 158.253 90.196C158.541 89.86 158.685 89.428 158.685 88.9C158.685 88.228 158.457 87.724 158.001 87.388C157.569 87.028 156.825 86.848 155.769 86.848H154.437V80.404H155.733C157.365 80.5 158.181 79.852 158.181 78.46C158.181 77.86 158.049 77.416 157.785 77.128C157.545 76.84 157.233 76.696 156.849 76.696C155.961 76.696 155.517 77.44 155.517 78.928H147.741Z" fill="#EAE4D8"/>
</svg>
